<svg width="180.313" height="28.614" viewBox="0 0 180.313 28.614" xmlns="http://www.w3.org/2000/svg"><g id="svgGroup" stroke-linecap="round" fill-rule="nonzero" font-size="9pt" stroke="#ffffff" stroke-width="0.1mm" fill="#ffffff" style="stroke:#ffffff;stroke-width:0.1mm;fill:#ffffff"><path d="M 20.703 27.832 L 9.473 27.832 Q 8.438 27.832 7.764 27.325 Q 7.09 26.817 7.09 25.703 Q 7.09 24.688 7.578 24.18 Q 8.067 23.672 8.692 23.369 Q 9.317 23.067 9.805 22.666 Q 10.293 22.266 10.293 21.446 L 10.293 18.848 L 3.477 7.559 Q 3.027 6.797 2.803 6.348 Q 2.578 5.899 1.777 5.371 Q 0.938 4.805 0.469 4.434 Q 0 4.063 0 2.93 Q 0 1.797 0.674 1.299 Q 1.348 0.801 2.402 0.801 L 13.516 0.801 Q 14.57 0.801 15.234 1.299 Q 15.899 1.797 15.899 2.93 Q 15.899 3.907 15.479 4.395 Q 15.059 4.883 14.522 5.147 Q 13.984 5.41 13.565 5.674 Q 13.145 5.938 13.145 6.465 Q 13.145 6.856 13.35 7.295 Q 13.555 7.735 13.75 8.067 L 17.559 14.61 L 21.719 7.364 Q 21.856 7.129 21.983 6.846 Q 22.109 6.563 22.109 6.289 Q 22.109 5.84 21.729 5.596 Q 21.348 5.352 20.859 5.088 Q 20.371 4.825 19.99 4.336 Q 19.609 3.848 19.609 2.93 Q 19.609 1.797 20.274 1.299 Q 20.938 0.801 21.992 0.801 L 27.442 0.801 Q 28.496 0.801 29.16 1.299 Q 29.824 1.797 29.824 2.93 Q 29.824 3.828 29.453 4.248 Q 29.082 4.668 28.418 5.176 Q 27.754 5.703 27.393 6.162 Q 27.031 6.621 26.582 7.364 L 19.902 18.594 L 19.902 21.446 Q 19.902 22.266 20.381 22.657 Q 20.859 23.047 21.494 23.34 Q 22.129 23.633 22.608 24.141 Q 23.086 24.649 23.086 25.703 Q 23.086 26.836 22.422 27.334 Q 21.758 27.832 20.703 27.832 Z" id="0" vector-effect="non-scaling-stroke"/><path d="M 55.117 15.782 L 54.492 7.207 Q 54.414 6.153 54.063 5.889 Q 53.711 5.625 52.793 5.293 Q 51.817 4.922 51.318 4.522 Q 50.82 4.121 50.82 2.969 Q 50.82 1.934 51.426 1.367 Q 52.031 0.801 53.047 0.801 L 60.547 0.801 Q 61.563 0.801 62.168 1.367 Q 62.774 1.934 62.774 2.969 Q 62.774 3.887 62.373 4.356 Q 61.973 4.825 61.397 5.078 Q 60.82 5.332 60.234 5.547 Q 59.649 5.762 59.248 6.162 Q 58.848 6.563 58.848 7.344 L 58.848 7.461 L 59.707 15.742 Q 59.805 16.739 59.854 17.744 Q 59.902 18.75 59.902 19.746 Q 59.902 22.442 58.613 24.17 Q 57.324 25.899 55.264 26.875 Q 53.203 27.852 50.84 28.233 Q 48.477 28.614 46.328 28.614 Q 44.082 28.614 41.953 28.174 Q 39.824 27.735 38.106 26.7 Q 36.387 25.664 35.371 23.907 Q 34.356 22.149 34.356 19.532 Q 34.356 18.477 34.463 17.432 Q 34.57 16.387 34.649 15.332 L 35.215 6.953 L 35.215 6.836 Q 35.215 6.211 34.824 5.928 Q 34.434 5.645 33.848 5.489 Q 33.262 5.332 32.676 5.108 Q 32.09 4.883 31.699 4.395 Q 31.309 3.907 31.309 2.969 Q 31.309 1.934 31.914 1.367 Q 32.52 0.801 33.535 0.801 L 46.27 0.801 Q 47.285 0.801 47.9 1.367 Q 48.516 1.934 48.516 2.969 Q 48.516 3.926 48.145 4.356 Q 47.774 4.785 47.168 4.991 Q 46.563 5.196 45.879 5.528 Q 45.234 5.84 45.049 6.162 Q 44.863 6.485 44.824 7.188 L 44.395 13.418 Q 44.317 14.727 44.229 16.026 Q 44.141 17.325 44.141 18.633 Q 44.141 21.348 45.596 22.539 Q 47.051 23.731 49.649 23.731 Q 51.055 23.731 52.344 23.34 Q 53.633 22.95 54.463 22.002 Q 55.293 21.055 55.293 19.434 Q 55.293 18.516 55.244 17.598 Q 55.195 16.68 55.117 15.782 Z" id="1" vector-effect="non-scaling-stroke"/><path d="M 98.676 24.778 A 2.173 2.173 0 0 0 98.603 24.525 A 1.225 1.225 0 0 0 98.408 24.17 Q 98.067 23.75 97.617 23.496 Q 97.168 23.242 96.807 22.823 Q 96.445 22.403 96.387 21.446 L 95.567 6.992 L 95.567 6.895 Q 95.567 6.27 95.957 5.909 Q 96.348 5.547 96.865 5.215 Q 97.383 4.883 97.774 4.366 Q 98.164 3.848 98.164 2.93 Q 98.164 1.817 97.52 1.309 Q 96.875 0.801 95.82 0.801 L 88.77 0.801 Q 86.777 0.801 85.781 1.905 Q 84.785 3.008 84.219 4.746 L 81.113 14.102 L 77.93 4.746 Q 77.363 3.067 76.367 1.934 Q 75.371 0.801 73.418 0.801 L 66.484 0.801 Q 65.449 0.801 64.805 1.319 Q 64.16 1.836 64.16 2.93 Q 64.16 3.867 64.551 4.366 Q 64.942 4.864 65.449 5.176 Q 65.957 5.489 66.348 5.869 Q 66.738 6.25 66.738 6.992 L 66.738 7.168 L 65.762 21.465 Q 65.703 22.364 65.313 22.803 Q 64.922 23.242 64.424 23.545 Q 63.926 23.848 63.565 24.307 Q 63.203 24.766 63.203 25.703 Q 63.203 26.817 63.838 27.325 Q 64.473 27.832 65.527 27.832 L 69.902 27.832 Q 70.977 27.832 71.611 27.285 Q 72.246 26.739 72.246 25.625 Q 72.246 24.805 71.914 24.317 Q 71.582 23.828 71.162 23.477 Q 70.742 23.125 70.41 22.705 Q 70.078 22.285 70.078 21.621 L 70.078 21.465 L 70.703 12.188 L 74.766 23.672 Q 75.059 24.532 75.508 25.332 Q 76.133 26.465 76.777 26.934 Q 77.422 27.403 78.77 27.403 Q 79.824 27.403 80.488 26.885 Q 81.152 26.367 81.572 25.557 Q 81.992 24.746 82.285 23.887 L 86.27 12.403 L 86.934 21.7 L 86.934 21.817 Q 86.934 22.403 86.543 22.754 Q 86.152 23.106 85.635 23.448 Q 85.117 23.789 84.727 24.307 Q 84.336 24.825 84.336 25.703 Q 84.336 26.817 84.971 27.325 Q 85.606 27.832 86.66 27.832 L 96.426 27.832 Q 97.52 27.832 98.135 27.246 A 1.789 1.789 0 0 0 98.366 26.978 A 2.043 2.043 0 0 0 98.636 26.419" id="2" vector-effect="non-scaling-stroke"/><path d="M 98.636 26.419 A 2.511 2.511 0 0 0 98.676 26.562 A 1.578 1.578 0 0 0 99.19 27.325 Q 99.824 27.832 100.879 27.832 L 105.254 27.832 Q 106.328 27.832 106.963 27.285 Q 107.598 26.739 107.598 25.625 Q 107.598 24.805 107.266 24.317 Q 106.934 23.828 106.514 23.477 Q 106.094 23.125 105.762 22.705 Q 105.43 22.285 105.43 21.621 L 105.43 21.465 L 106.055 12.188 L 110.117 23.672 Q 110.41 24.532 110.859 25.332 Q 111.484 26.465 112.129 26.934 Q 112.774 27.403 114.121 27.403 Q 115.176 27.403 115.84 26.885 Q 116.504 26.367 116.924 25.557 Q 117.344 24.746 117.637 23.887 L 121.621 12.403 L 122.285 21.7 L 122.285 21.817 Q 122.285 22.403 121.895 22.754 Q 121.504 23.106 120.986 23.448 Q 120.469 23.789 120.078 24.307 Q 119.688 24.825 119.688 25.703 Q 119.688 26.817 120.322 27.325 Q 120.957 27.832 122.012 27.832 L 131.777 27.832 Q 132.871 27.832 133.486 27.246 Q 134.102 26.66 134.102 25.567 Q 134.102 24.59 133.76 24.17 Q 133.418 23.75 132.969 23.496 Q 132.52 23.242 132.158 22.823 Q 131.797 22.403 131.738 21.446 L 130.918 6.992 L 130.918 6.895 Q 130.918 6.27 131.309 5.909 Q 131.699 5.547 132.217 5.215 Q 132.734 4.883 133.125 4.366 Q 133.516 3.848 133.516 2.93 Q 133.516 1.817 132.871 1.309 Q 132.227 0.801 131.172 0.801 L 124.121 0.801 Q 122.129 0.801 121.133 1.905 Q 120.137 3.008 119.57 4.746 L 116.465 14.102 L 113.281 4.746 Q 112.715 3.067 111.719 1.934 Q 110.723 0.801 108.77 0.801 L 101.836 0.801 Q 100.801 0.801 100.156 1.319 Q 99.512 1.836 99.512 2.93 Q 99.512 3.867 99.902 4.366 Q 100.293 4.864 100.801 5.176 Q 101.309 5.489 101.699 5.869 Q 102.09 6.25 102.09 6.992 L 102.09 7.168 L 101.113 21.465 Q 101.055 22.364 100.664 22.803 Q 100.274 23.242 99.775 23.545 Q 99.277 23.848 98.916 24.307 Q 98.77 24.493 98.683 24.756 A 2.44 2.44 0 0 0 98.676 24.778" id="3" vector-effect="non-scaling-stroke"/><path d="M 147.09 7.188 L 147.09 21.446 Q 147.09 22.285 147.481 22.686 Q 147.871 23.086 148.399 23.389 Q 148.926 23.692 149.317 24.18 Q 149.707 24.668 149.707 25.703 Q 149.707 26.817 149.063 27.325 Q 148.418 27.832 147.363 27.832 L 137.207 27.832 Q 136.152 27.832 135.508 27.325 Q 134.863 26.817 134.863 25.703 Q 134.863 24.688 135.254 24.2 Q 135.645 23.711 136.172 23.409 Q 136.699 23.106 137.09 22.696 Q 137.481 22.285 137.481 21.446 L 137.481 7.188 Q 137.481 6.348 137.09 5.938 Q 136.699 5.528 136.172 5.225 Q 135.645 4.922 135.254 4.434 Q 134.863 3.946 134.863 2.93 Q 134.863 1.817 135.508 1.309 Q 136.152 0.801 137.207 0.801 L 147.363 0.801 Q 148.418 0.801 149.063 1.309 Q 149.707 1.817 149.707 2.93 Q 149.707 3.946 149.317 4.434 Q 148.926 4.922 148.399 5.225 Q 147.871 5.528 147.481 5.938 Q 147.09 6.348 147.09 7.188 Z" id="4" vector-effect="non-scaling-stroke"/><path d="M 166.133 0 Q 170.313 0 173.506 1.748 Q 176.699 3.496 178.506 6.651 Q 180.313 9.805 180.313 14.024 Q 180.313 18.301 178.574 21.592 Q 176.836 24.883 173.662 26.748 Q 170.488 28.614 166.133 28.614 Q 161.719 28.614 158.535 26.807 Q 155.352 25 153.633 21.739 Q 151.914 18.477 151.914 14.121 Q 151.914 9.942 153.74 6.758 Q 155.567 3.575 158.77 1.787 Q 161.973 0 166.133 0 Z M 170.43 20.059 Q 170.43 16.973 169.824 14.063 Q 169.668 13.321 169.317 12.09 Q 168.965 10.86 168.428 9.492 Q 167.891 8.125 167.197 6.895 Q 166.504 5.664 165.674 4.893 Q 164.844 4.121 163.906 4.121 Q 162.91 4.121 162.49 4.942 Q 162.07 5.762 161.983 6.807 Q 161.895 7.852 161.895 8.555 Q 161.895 10.977 162.295 13.389 Q 162.695 15.801 163.535 18.086 Q 163.77 18.75 164.248 19.805 Q 164.727 20.86 165.391 21.914 Q 166.055 22.969 166.826 23.692 Q 167.598 24.414 168.418 24.414 Q 169.414 24.414 169.834 23.614 Q 170.254 22.813 170.342 21.778 Q 170.43 20.742 170.43 20.059 Z" id="5" vector-effect="non-scaling-stroke"/></g></svg>